<?xml version="1.0" encoding="utf-8"?><svg xmlns="http://www.w3.org/2000/svg" xmlns:xlink="http://www.w3.org/1999/xlink" width="1046" height="512" preserveAspectRatio="xMidYMid" viewBox="0 0 1046 512" style="z-index:1;margin-right:-1.6px;display:block;background-repeat-y:initial;background-repeat-x:initial;background-color:rgb(255, 255, 255);animation-play-state:paused" ><g transform="translate(523,256) scale(1,1) translate(-523,-256)" style="transform:matrix(1, 0, 0, 1, 0, 0);animation-play-state:paused" ><linearGradient id="lg-0.6841829371210344" x1="0" x2="1" y1="0" y2="0" style="animation-play-state:paused" ><stop stop-color="#ff00ff" offset="0" style="animation-play-state:paused" ></stop>

  
<stop stop-color="#00ffff" offset="1" style="animation-play-state:paused" ></stop></linearGradient>
<path d="M 0 0 L 0 663.696 Q 47.5455 478.593 95.0909 444.715 T 190.182 227.358 T 285.273 238.101 T 380.364 -35.8123 T 475.455 -179.408 T 570.545 -188.833 T 665.636 -448.877 T 760.727 -657.346 T 855.818 -601.22 T 950.909 -877.466 T 1046 -981.701 L 1046 0 Z" fill="url(#lg-0.6841829371210344)" opacity="0.4" style="opacity:0.4;animation-play-state:paused" ></path>
<path d="M 0 0 L 0 622.298 Q 47.5455 491.732 95.0909 453.977 T 190.182 350.436 T 285.273 197.589 T 380.364 11.0967 T 475.455 -101.309 T 570.545 -260.654 T 665.636 -389.823 T 760.727 -556.242 T 855.818 -662.409 T 950.909 -798.109 T 1046 -952.442 L 1046 0 Z" fill="url(#lg-0.6841829371210344)" opacity="0.4" style="opacity:0.4;animation-play-state:paused" ></path>
<path d="M 0 0 L 0 624.628 Q 47.5455 444.013 95.0909 419.123 T 190.182 270.587 T 285.273 196.441 T 380.364 109.801 T 475.455 -27.3941 T 570.545 -257.717 T 665.636 -401.011 T 760.727 -525.148 T 855.818 -571.599 T 950.909 -618.008 T 1046 -730.679 L 1046 0 Z" fill="url(#lg-0.6841829371210344)" opacity="0.4" style="opacity:0.4;animation-play-state:paused" ></path>
<path d="M 0 0 L 0 540.589 Q 47.5455 569.176 95.0909 536.834 T 190.182 354.869 T 285.273 178.614 T 380.364 62.7429 T 475.455 -89.2768 T 570.545 -208.892 T 665.636 -431.229 T 760.727 -494.944 T 855.818 -607.728 T 950.909 -750.229 T 1046 -851.813 L 1046 0 Z" fill="url(#lg-0.6841829371210344)" opacity="0.4" style="opacity:0.4;animation-play-state:paused" ></path>
<path d="M 0 0 L 0 554.037 Q 47.5455 488.33 95.0909 451.739 T 190.182 234.057 T 285.273 112.848 T 380.364 105.875 T 475.455 44.3829 T 570.545 -116.705 T 665.636 -208.785 T 760.727 -440.134 T 855.818 -640.899 T 950.909 -631.064 T 1046 -869.696 L 1046 0 Z" fill="url(#lg-0.6841829371210344)" opacity="0.4" style="opacity:0.4;animation-play-state:paused" ></path>
<path d="M 0 0 L 0 588.197 Q 47.5455 557.912 95.0909 528.287 T 190.182 417.082 T 285.273 181.865 T 380.364 49.4703 T 475.455 -54.6334 T 570.545 -170.056 T 665.636 -270.634 T 760.727 -456.789 T 855.818 -575.002 T 950.909 -766.911 T 1046 -834.63 L 1046 0 Z" fill="url(#lg-0.6841829371210344)" opacity="0.4" style="opacity:0.4;animation-play-state:paused" ></path></g></svg>